<svg width="12" height="17" viewBox="0 0 12 17" fill="none" xmlns="http://www.w3.org/2000/svg">
<path fill-rule="evenodd" clip-rule="evenodd" d="M9.85717 3.1667H11.1428C11.3159 3.1667 11.4728 3.0582 11.5389 2.892C11.6057 2.7267 11.5689 2.5347 11.4463 2.40755L10.1605 1.07422C10.038 0.94711 9.85456 0.91067 9.69343 0.97822C9.53317 1.04667 9.42854 1.20933 9.42854 1.38889V2.7222C9.42854 2.9676 9.62053 3.1667 9.85717 3.1667ZM5.14288 8.5H9.42854V6.7222H5.14288V8.5ZM10.2857 6.2778C10.2857 6.0324 10.0937 5.8333 9.85717 5.8333H2.1429C1.90626 5.8333 1.71427 6.0324 1.71427 6.2778V14.2778C1.71427 14.5231 1.90626 14.7222 2.1429 14.7222H9.85717C10.0937 14.7222 10.2857 14.5231 10.2857 14.2778V6.2778ZM1.71427 3.1667C1.71427 3.6582 2.09825 4.0556 2.57143 4.0556H6.00003C6.47311 4.0556 6.85709 3.6582 6.85709 3.1667C6.85709 2.6751 6.47311 2.27778 6.00003 2.27778H2.57143C2.09825 2.27778 1.71427 2.6751 1.71427 3.1667ZM12 4.5V14.8929C12 15.7791 11.3537 16.5 10.5583 16.5H1.44167C0.64633 16.5 0 15.7791 0 14.8929V2.10711C0 1.22089 0.64633 0.5 1.44167 0.5H8.14287C8.3794 0.5 8.57139 0.69911 8.57139 0.94444V2.7222C8.57139 3.4573 9.14823 4.0556 9.85717 4.0556H11.5714C11.808 4.0556 12 4.2547 12 4.5ZM2.57143 8.5H4.28573V6.7222H2.57143V8.5ZM5.14288 13.8333H9.42854V9.3889H5.14288V13.8333ZM2.57143 13.8333H4.28573V9.3889H2.57143V13.8333Z" fill="black"/>
</svg>
