<svg width="17" height="14" viewBox="0 0 17 14" fill="none" xmlns="http://www.w3.org/2000/svg">
<path d="M11.9 11.55V13.25H0V11.55C0 11.55 0 8.15004 5.95 8.15004C11.9 8.15004 11.9 11.55 11.9 11.55ZM8.925 3.47504C8.925 2.88665 8.75052 2.31146 8.42362 1.82222C8.09673 1.33299 7.63209 0.951674 7.08848 0.726503C6.54487 0.501333 5.9467 0.442418 5.36961 0.557209C4.79251 0.672 4.26242 0.955341 3.84636 1.3714C3.4303 1.78746 3.14696 2.31756 3.03216 2.89465C2.91737 3.47174 2.97629 4.06992 3.20146 4.61353C3.42663 5.15714 3.80794 5.62177 4.29718 5.94867C4.78642 6.27556 5.3616 6.45004 5.95 6.45004C6.73902 6.45004 7.49572 6.13661 8.05364 5.57869C8.61156 5.02077 8.925 4.26406 8.925 3.47504ZM11.849 8.15004C12.3715 8.55443 12.7991 9.06841 13.1016 9.65583C13.4041 10.2432 13.5743 10.8898 13.6 11.55V13.25H17V11.55C17 11.55 17 8.46454 11.849 8.15004ZM11.05 0.500045C10.4649 0.496787 9.89274 0.671707 9.4095 1.00154C9.92583 1.72297 10.2034 2.58789 10.2034 3.47504C10.2034 4.3622 9.92583 5.22712 9.4095 5.94854C9.89274 6.27838 10.4649 6.4533 11.05 6.45004C11.839 6.45004 12.5957 6.13661 13.1536 5.57869C13.7116 5.02077 14.025 4.26406 14.025 3.47504C14.025 2.68603 13.7116 1.92932 13.1536 1.3714C12.5957 0.813481 11.839 0.500045 11.05 0.500045Z" fill="black"/>
</svg>
