<svg width="15" height="15" viewBox="0 0 15 15" fill="none" xmlns="http://www.w3.org/2000/svg">
<path fill-rule="evenodd" clip-rule="evenodd" d="M3.15558 3.66744C3.11358 3.45934 3.22498 3.25064 3.42128 3.16964L9.62578 0.600801C10.3047 0.320881 11.0821 0.643921 11.3627 1.32257L12.224 3.41144C12.2808 3.54844 12.2653 3.70474 12.1828 3.82804C12.1003 3.95124 11.9616 4.02514 11.8133 4.02484H3.59108C3.37928 4.02464 3.19708 3.87514 3.15558 3.66744ZM11.1111 8.46924H13.7778C14.0233 8.46924 14.2222 8.66824 14.2222 8.91364V10.6914C14.2222 10.9369 14.0233 11.1359 13.7778 11.1359H11.1111C10.8657 11.1359 10.6667 10.9369 10.6667 10.6914V8.91364C10.6667 8.66824 10.8657 8.46924 11.1111 8.46924ZM11.5556 9.80254C11.5556 10.048 11.7546 10.247 12 10.247C12.2455 10.247 12.4445 10.048 12.4445 9.80254C12.4445 9.55714 12.2455 9.35814 12 9.35814C11.7546 9.35814 11.5556 9.55714 11.5556 9.80254ZM14.2222 6.69144V6.24704C14.2213 5.51104 13.6249 4.91464 12.8889 4.91364H1.33328C0.597361 4.91464 0.00098 5.51104 0 6.24704V13.3581C0.00098 14.0941 0.597361 14.6904 1.33328 14.6914H12.8889C13.6249 14.6904 14.2213 14.0941 14.2222 13.3581V12.9136C14.2222 12.6682 14.0233 12.4692 13.7778 12.4692H10.6667C9.93068 12.4682 9.33428 11.8718 9.33328 11.1359V8.46924C9.33428 7.73324 9.93068 7.13684 10.6667 7.13594H13.7778C14.0233 7.13594 14.2222 6.93694 14.2222 6.69144Z" fill="black"/>
</svg>
